# Blender v2.92.0 OBJ File: ''
# www.blender.org
mtllib Hearth.mtl
o HeartModel
v 3.005383 3.918273 -11.870669
v 5.425184 3.918273 -11.009168
v 7.651584 3.918273 -9.728269
v 8.671184 3.918273 -10.426167
v 9.745284 3.918273 -11.036567
v 10.866583 3.918273 -11.555366
v 12.027183 3.918273 -11.978969
v 13.219083 3.918273 -12.304367
v 14.433883 3.918274 -12.529267
v 15.663283 3.918274 -12.652267
v 16.898581 3.918274 -12.672366
v 18.131281 3.918274 -12.589468
v 19.352783 3.918273 -12.404169
v 20.554682 3.918273 -12.117666
v 21.728481 3.918273 -11.732067
v 23.091583 3.918273 -11.137070
v 24.384985 3.918273 -10.402369
v 25.594181 3.918273 -9.536265
v 26.705984 3.918273 -8.548168
v 27.708082 3.918273 -7.448968
v 28.589481 3.918272 -6.250867
v 29.340481 3.918272 -4.966969
v 29.952784 3.918272 -3.611468
v 30.419683 3.918272 -2.199167
v 30.736084 3.918272 -0.745768
v 30.898285 3.918271 0.732733
v 30.904783 3.918271 2.220133
v 30.793880 3.918271 3.599332
v 30.594982 3.918271 4.968532
v 30.308685 3.918271 6.322232
v 29.936384 3.918270 7.654832
v 29.479383 3.918270 8.960833
v 28.939781 3.918270 10.234834
v 28.319582 3.918270 11.471733
v 27.621483 3.918269 12.666334
v 26.848383 3.918269 13.813732
v 26.003284 3.918269 14.909332
v 25.089783 3.918269 15.948433
v 24.111580 3.918269 16.927032
v 11.385083 3.918267 28.867243
v 10.902484 3.918267 29.260273
v 10.374883 3.918267 29.590462
v 9.810484 3.918267 29.852713
v 9.217883 3.918267 30.042973
v 8.606284 3.918267 30.158323
v 7.985084 3.918267 30.196964
v 7.363882 3.918267 30.158323
v 6.752284 3.918267 30.042973
v 6.159682 3.918267 29.852713
v 5.595284 3.918267 29.590462
v 5.067682 3.918267 29.260273
v 4.585083 3.918267 28.867243
v -8.345137 3.918269 16.927032
v -9.357476 3.918269 15.923733
v -10.296536 3.918269 14.851533
v -11.157626 3.918269 13.715733
v -11.936457 3.918269 12.522133
v -12.629157 3.918270 11.276432
v -13.232276 3.918270 9.985133
v -13.742806 3.918270 8.654333
v -14.158207 3.918270 7.290931
v -14.476397 3.918271 5.901633
v -14.695817 3.918271 4.493332
v -14.815347 3.918271 3.073133
v -14.834406 3.918271 1.647933
v -14.547417 3.918272 -0.904566
v -13.807897 3.918272 -3.364367
v -12.639747 3.918272 -5.651967
v -11.080756 3.918273 -7.693266
v -9.181356 3.918273 -9.422368
v -7.002918 3.918273 -10.783366
v -4.616017 3.918273 -11.732067
v -2.097816 3.918273 -12.238068
v 0.470383 3.918273 -12.284669
v 3.005383 7.818274 -11.870669
v 5.425184 7.818274 -11.009168
v 0.470383 7.818274 -12.284669
v -2.097816 7.818274 -12.238068
v -4.616017 7.818274 -11.732067
v -7.002918 7.818274 -10.783366
v -9.181356 7.818273 -9.422368
v -11.080756 7.818273 -7.693265
v -12.639747 7.818273 -5.651966
v -13.807897 7.818272 -3.364366
v -14.547417 7.818272 -0.904566
v -14.834406 7.818271 1.647934
v -14.815347 7.818271 3.073133
v -14.695817 7.818271 4.493333
v -14.476397 7.818271 5.901634
v -14.158207 7.818271 7.290932
v -13.742806 7.818270 8.654333
v -13.232276 7.818270 9.985133
v -12.629157 7.818270 11.276432
v -11.936457 7.818270 12.522133
v -11.157626 7.818269 13.715733
v -10.296536 7.818269 14.851533
v -9.357476 7.818269 15.923733
v -8.345137 7.818269 16.927034
v 4.585083 7.818267 28.867245
v 5.067682 7.818267 29.260275
v 5.595284 7.818267 29.590464
v 6.159682 7.818267 29.852715
v 6.752284 7.818267 30.042974
v 7.363882 7.818267 30.158325
v 7.985084 7.818267 30.196966
v 8.606284 7.818267 30.158325
v 9.217883 7.818267 30.042974
v 9.810484 7.818267 29.852715
v 10.374883 7.818267 29.590464
v 10.902484 7.818267 29.260275
v 11.385083 7.818267 28.867245
v 24.111580 7.818269 16.927034
v 25.089783 7.818269 15.948433
v 26.003284 7.818269 14.909332
v 26.848383 7.818269 13.813732
v 27.621483 7.818270 12.666334
v 28.319582 7.818270 11.471733
v 28.939781 7.818270 10.234834
v 29.479383 7.818270 8.960833
v 29.936384 7.818270 7.654833
v 30.308685 7.818271 6.322233
v 30.594982 7.818271 4.968533
v 30.793880 7.818271 3.599333
v 30.904783 7.818271 2.220134
v 30.898285 7.818272 0.732733
v 30.736084 7.818272 -0.745767
v 30.419683 7.818272 -2.199167
v 29.952784 7.818272 -3.611468
v 29.340481 7.818273 -4.966968
v 28.589481 7.818273 -6.250866
v 27.708082 7.818273 -7.448967
v 26.705984 7.818273 -8.548168
v 25.594181 7.818273 -9.536265
v 24.384985 7.818274 -10.402369
v 23.091583 7.818274 -11.137070
v 21.728481 7.818274 -11.732067
v 20.554682 7.818274 -12.117666
v 19.352783 7.818274 -12.404169
v 18.131281 7.818274 -12.589468
v 16.898581 7.818274 -12.672366
v 15.663283 7.818274 -12.652267
v 14.433883 7.818274 -12.529267
v 13.219083 7.818274 -12.304367
v 12.027183 7.818274 -11.978969
v 10.866583 7.818274 -11.555366
v 9.745284 7.818274 -11.036567
v 8.671184 7.818274 -10.426167
v 7.651584 7.818273 -9.728269
vt -0.401597 0.909257
vt -0.449609 0.892166
vt -0.493784 0.866751
vt -0.514013 0.880596
vt -0.535326 0.892708
vt -0.557574 0.903002
vt -0.580602 0.911406
vt -0.604250 0.917862
vt -0.628354 0.922326
vt -0.652746 0.924766
vt -0.677256 0.925165
vt -0.701715 0.923520
vt -0.725951 0.919843
vt -0.749797 0.914159
vt -0.773086 0.906509
vt -0.800134 0.894702
vt -0.825795 0.880125
vt -0.849787 0.862940
vt -0.871847 0.843335
vt -0.891730 0.821526
vt -0.909218 0.797754
vt -0.924119 0.772280
vt -0.936269 0.745384
vt -0.945532 0.717364
vt -0.951809 0.688526
vt -0.955029 0.659190
vt -0.955157 0.629678
vt -0.952957 0.602314
vt -0.949009 0.575147
vt -0.943330 0.548288
vt -0.935942 0.521848
vt -0.926875 0.495935
vt -0.916168 0.470657
vt -0.903863 0.446116
vt -0.890012 0.422414
vt -0.874672 0.399647
vt -0.857904 0.377910
vt -0.839779 0.357291
vt -0.820371 0.337875
vt -0.567861 0.100966
vt -0.558286 0.093168
vt -0.547818 0.086617
vt -0.536619 0.081413
vt -0.524861 0.077638
vt -0.512726 0.075350
vt -0.500401 0.074583
vt -0.488076 0.075350
vt -0.475941 0.077638
vt -0.464183 0.081413
vt -0.452984 0.086617
vt -0.442516 0.093168
vt -0.432941 0.100966
vt -0.176388 0.337875
vt -0.156302 0.357782
vt -0.137670 0.379056
vt -0.120585 0.401591
vt -0.105132 0.425274
vt -0.091388 0.449989
vt -0.079421 0.475612
vt -0.069292 0.502015
vt -0.061050 0.529067
vt -0.054736 0.556632
vt -0.050383 0.584574
vt -0.048011 0.612754
vt -0.047633 0.641031
vt -0.053327 0.691676
vt -0.068001 0.740482
vt -0.091178 0.785870
vt -0.122110 0.826373
vt -0.159797 0.860681
vt -0.203019 0.887684
vt -0.250379 0.906509
vt -0.300344 0.916547
vt -0.351300 0.917473
vt -24.678101 0.000000
vt -14.565600 0.000000
vt -14.565600 15.354300
vt -24.678101 15.354300
vt -49.560299 0.000000
vt -39.447800 0.000000
vt -39.447800 15.354300
vt -49.560299 15.354300
vt -73.003197 0.000000
vt -62.890701 0.000000
vt -62.890701 15.354300
vt -73.003197 15.354300
vt -94.248497 0.000000
vt -84.136002 0.000000
vt -84.136002 15.354300
vt -94.248497 15.354300
vt -112.609001 0.000000
vt -102.497002 0.000000
vt -102.497002 15.354300
vt -112.609001 15.354300
vt -127.490997 0.000000
vt -117.378998 0.000000
vt -117.378998 15.354300
vt -127.490997 15.354300
vt -138.414001 0.000000
vt -128.300995 0.000000
vt -128.300995 15.354300
vt -138.414001 15.354300
vt -145.022995 0.000000
vt -134.910004 0.000000
vt -134.910004 15.354300
vt -145.022995 15.354300
vt -147.104996 0.000000
vt -136.992996 0.000000
vt -136.992996 15.354300
vt -147.104996 15.354300
vt -144.593994 0.000000
vt -134.481003 0.000000
vt -134.481003 15.354300
vt -144.593994 15.354300
vt -137.569000 0.000000
vt -127.456001 0.000000
vt -127.456001 15.354300
vt -137.569000 15.354300
vt -127.058998 0.000000
vt -121.447998 0.000000
vt -121.447998 15.354300
vt -127.058998 15.354300
vt -120.359001 0.000000
vt -114.747002 0.000000
vt -114.747002 15.354300
vt -120.359001 15.354300
vt -113.072998 0.000000
vt -107.460999 0.000000
vt -107.460999 15.354300
vt -113.072998 15.354300
vt -105.237000 0.000000
vt -99.626099 0.000000
vt -99.626099 15.354300
vt -105.237000 15.354300
vt -96.891998 0.000000
vt -91.280602 0.000000
vt -91.280602 15.354300
vt -96.891998 15.354300
vt -88.077904 0.000000
vt -82.466499 0.000000
vt -82.466499 15.354300
vt -88.077904 15.354300
vt -78.838997 0.000000
vt -73.227699 0.000000
vt -73.227699 15.354300
vt -78.838997 15.354300
vt -69.221397 0.000000
vt -63.610100 0.000000
vt -63.610100 15.354300
vt -69.221397 15.354300
vt -59.272999 0.000000
vt -53.661598 0.000000
vt -53.661598 15.354300
vt -59.272999 15.354300
vt -49.043301 0.000000
vt -43.431900 0.000000
vt -43.431900 15.354300
vt -49.043301 15.354300
vt -38.583302 0.000000
vt -32.971901 0.000000
vt -32.971901 15.354300
vt -38.583302 15.354300
vt -27.945000 0.000000
vt -22.333700 0.000000
vt -22.333700 15.354300
vt -27.945000 15.354300
vt -19.769899 0.000000
vt 49.521400 0.000000
vt 49.521400 15.354300
vt -19.769899 15.354300
vt 53.958698 0.000000
vt 56.409000 0.000000
vt 56.409000 15.354300
vt 53.958698 15.354300
vt 64.623596 0.000000
vt 67.073997 0.000000
vt 67.073997 15.354300
vt 64.623596 15.354300
vt 74.273003 0.000000
vt 76.723396 0.000000
vt 76.723396 15.354300
vt 74.273003 15.354300
vt 82.758003 0.000000
vt 85.208298 0.000000
vt 85.208298 15.354300
vt 82.758003 15.354300
vt 89.947701 0.000000
vt 92.398102 0.000000
vt 92.398102 15.354300
vt 89.947701 15.354300
vt 95.731300 0.000000
vt 98.181602 0.000000
vt 98.181602 15.354300
vt 95.731300 15.354300
vt 100.019997 0.000000
vt 102.470001 0.000000
vt 102.470001 15.354300
vt 100.019997 15.354300
vt 102.746002 0.000000
vt 105.196999 0.000000
vt 105.196999 15.354300
vt 102.746002 15.354300
vt 103.869003 0.000000
vt 106.320000 0.000000
vt 106.320000 15.354300
vt 103.869003 15.354300
vt 103.372002 0.000000
vt 105.821999 0.000000
vt 105.821999 15.354300
vt 103.372002 15.354300
vt 101.261002 0.000000
vt 103.710999 0.000000
vt 103.710999 15.354300
vt 101.261002 15.354300
vt 97.569504 0.000000
vt 100.019997 0.000000
vt 100.019997 15.354300
vt 97.569504 15.354300
vt 95.881104 0.000000
vt 164.585007 0.000000
vt 164.585007 15.354300
vt 95.881104 15.354300
vt 162.498993 0.000000
vt 167.945999 0.000000
vt 167.945999 15.354300
vt 162.498993 15.354300
vt 163.263000 0.000000
vt 168.710999 0.000000
vt 168.710999 15.354300
vt 163.263000 15.354300
vt 163.345993 0.000000
vt 168.794006 0.000000
vt 168.794006 15.354300
vt 163.345993 15.354300
vt 162.748001 0.000000
vt 168.195007 0.000000
vt 168.195007 15.354300
vt 162.748001 15.354300
vt 161.468994 0.000000
vt 166.917007 0.000000
vt 166.917007 15.354300
vt 161.468994 15.354300
vt 159.516998 0.000000
vt 164.964005 0.000000
vt 164.964005 15.354300
vt 159.516998 15.354300
vt 156.897995 0.000000
vt 162.345001 0.000000
vt 162.345001 15.354300
vt 156.897995 15.354300
vt 153.623993 0.000000
vt 159.070999 0.000000
vt 159.070999 15.354300
vt 153.623993 15.354300
vt 149.707001 0.000000
vt 155.154999 0.000000
vt 155.154999 15.354300
vt 149.707001 15.354300
vt 145.164993 0.000000
vt 150.612000 0.000000
vt 150.612000 15.354300
vt 145.164993 15.354300
vt 140.016006 0.000000
vt 145.462997 0.000000
vt 145.462997 15.354300
vt 140.016006 15.354300
vt 134.279999 0.000000
vt 139.727005 0.000000
vt 139.727005 15.354300
vt 134.279999 15.354300
vt 124.122002 0.000000
vt 129.977997 0.000000
vt 129.977997 15.354300
vt 124.122002 15.354300
vt 109.344002 0.000000
vt 115.199997 0.000000
vt 115.199997 15.354300
vt 109.344002 15.354300
vt 93.329697 0.000000
vt 99.185699 0.000000
vt 99.185699 15.354300
vt 93.329697 15.354300
vt 76.255600 0.000000
vt 82.111504 0.000000
vt 82.111504 15.354300
vt 76.255600 15.354300
vt 58.309399 0.000000
vt 64.165398 0.000000
vt 64.165398 15.354300
vt 58.309399 15.354300
vt 39.688900 0.000000
vt 45.544899 0.000000
vt 45.544899 15.354300
vt 39.688900 15.354300
vt 20.599100 0.000000
vt 26.455099 0.000000
vt 26.455099 15.354300
vt 20.599100 15.354300
vt 1.250200 0.000000
vt 7.106170 0.000000
vt 7.106170 15.354300
vt 1.250200 15.354300
vt -18.144699 0.000000
vt -12.288700 0.000000
vt -12.288700 15.354300
vt -18.144699 15.354300
vt -37.372101 0.000000
vt -31.516100 0.000000
vt -31.516100 15.354300
vt -37.372101 15.354300
vt -56.220100 0.000000
vt -50.364101 0.000000
vt -50.364101 15.354300
vt -56.220100 15.354300
vt -74.481300 0.000000
vt -68.625298 0.000000
vt -68.625298 15.354300
vt -74.481300 15.354300
vt -89.600197 0.000000
vt -84.736099 0.000000
vt -84.736099 15.354300
vt -89.600197 15.354300
vt -102.668999 0.000000
vt -97.804802 0.000000
vt -97.804802 15.354300
vt -102.668999 15.354300
vt -115.041000 0.000000
vt -110.176003 0.000000
vt -110.176003 15.354300
vt -115.041000 15.354300
vt -126.628998 0.000000
vt -121.764999 0.000000
vt -121.764999 15.354300
vt -126.628998 15.354300
vt -137.354004 0.000000
vt -132.490005 0.000000
vt -132.490005 15.354300
vt -137.354004 15.354300
vt -147.141006 0.000000
vt -142.276001 0.000000
vt -142.276001 15.354300
vt -147.141006 15.354300
vt -155.921005 0.000000
vt -151.057007 0.000000
vt -151.057007 15.354300
vt -155.921005 15.354300
vt -163.632996 0.000000
vt -158.768997 0.000000
vt -158.768997 15.354300
vt -163.632996 15.354300
vt -170.225006 0.000000
vt -165.360992 0.000000
vt -165.360992 15.354300
vt -170.225006 15.354300
vt -175.649994 0.000000
vt -170.785995 0.000000
vt -170.785995 15.354300
vt -175.649994 15.354300
vt -179.869995 0.000000
vt -175.005997 0.000000
vt -175.005997 15.354300
vt -179.869995 15.354300
vt -182.856003 0.000000
vt -177.992004 0.000000
vt -177.992004 15.354300
vt -182.856003 15.354300
vt 0.838715 0.000000
vt 10.951200 0.000000
vt 10.951200 15.354300
vt 0.838715 15.354300
vt 0.449609 0.892166
vt 0.401597 0.909257
vt 0.351300 0.917473
vt 0.300344 0.916547
vt 0.250379 0.906509
vt 0.203019 0.887684
vt 0.159797 0.860681
vt 0.122110 0.826373
vt 0.091178 0.785870
vt 0.068001 0.740482
vt 0.053327 0.691676
vt 0.047633 0.641031
vt 0.048011 0.612754
vt 0.050383 0.584574
vt 0.054736 0.556632
vt 0.061050 0.529067
vt 0.069292 0.502015
vt 0.079421 0.475612
vt 0.091388 0.449989
vt 0.105132 0.425274
vt 0.120585 0.401591
vt 0.137670 0.379056
vt 0.156302 0.357782
vt 0.176388 0.337875
vt 0.432941 0.100966
vt 0.442516 0.093168
vt 0.452984 0.086617
vt 0.464183 0.081413
vt 0.475941 0.077638
vt 0.488076 0.075350
vt 0.500401 0.074583
vt 0.512726 0.075350
vt 0.524861 0.077638
vt 0.536619 0.081413
vt 0.547818 0.086617
vt 0.558286 0.093168
vt 0.567861 0.100966
vt 0.820371 0.337875
vt 0.839779 0.357291
vt 0.857904 0.377910
vt 0.874672 0.399647
vt 0.890012 0.422414
vt 0.903863 0.446116
vt 0.916168 0.470657
vt 0.926875 0.495935
vt 0.935942 0.521848
vt 0.943330 0.548288
vt 0.949009 0.575147
vt 0.952957 0.602314
vt 0.955157 0.629678
vt 0.955029 0.659190
vt 0.951809 0.688526
vt 0.945532 0.717364
vt 0.936269 0.745384
vt 0.924119 0.772280
vt 0.909218 0.797754
vt 0.891730 0.821526
vt 0.871847 0.843335
vt 0.849787 0.862940
vt 0.825795 0.880125
vt 0.800134 0.894702
vt 0.773086 0.906509
vt 0.749797 0.914159
vt 0.725951 0.919843
vt 0.701715 0.923520
vt 0.677256 0.925165
vt 0.652746 0.924766
vt 0.628354 0.922326
vt 0.604250 0.917862
vt 0.580602 0.911406
vt 0.557574 0.903002
vt 0.535326 0.892708
vt 0.514013 0.880596
vt 0.493784 0.866751
vn -0.0000 -1.0000 -0.0000
vn 0.4187 0.0000 -0.9081
vn 0.2493 0.0000 -0.9684
vn 0.0718 0.0000 -0.9974
vn -0.1080 0.0000 -0.9941
vn -0.2843 0.0000 -0.9587
vn -0.4514 0.0000 -0.8923
vn -0.6040 0.0000 -0.7970
vn -0.7369 0.0000 -0.6760
vn -0.8461 0.0000 -0.5330
vn -0.9279 -0.0000 -0.3729
vn -0.9797 -0.0000 -0.2006
vn -0.9937 0.0000 -0.1117
vn -0.9999 0.0000 0.0134
vn -0.9988 -0.0000 0.0486
vn -0.9929 -0.0000 0.1190
vn -0.9820 0.0000 0.1887
vn -0.9663 0.0000 0.2575
vn -0.9457 0.0000 0.3250
vn -0.9204 0.0000 0.3909
vn -0.8906 0.0000 0.4549
vn -0.8563 0.0000 0.5165
vn -0.8177 0.0000 0.5757
vn -0.7751 0.0000 0.6319
vn -0.7286 0.0000 0.6850
vn -0.7039 0.0000 0.7103
vn -0.6784 -0.0000 0.7347
vn -0.6315 -0.0000 0.7754
vn -0.5821 -0.0000 0.8131
vn -0.4769 -0.0000 0.8790
vn -0.3642 -0.0000 0.9313
vn -0.2460 -0.0000 0.9693
vn -0.1240 -0.0000 0.9923
vn 0.0000 -0.0000 1.0000
vn 0.1240 -0.0000 0.9923
vn 0.2460 -0.0000 0.9693
vn 0.3642 -0.0000 0.9313
vn 0.4769 -0.0000 0.8790
vn 0.5821 -0.0000 0.8131
vn 0.6315 -0.0000 0.7754
vn 0.6842 -0.0000 0.7293
vn 0.7072 -0.0000 0.7070
vn 0.7295 -0.0000 0.6840
vn 0.7718 0.0000 0.6358
vn 0.8110 0.0000 0.5851
vn 0.8468 0.0000 0.5319
vn 0.8791 0.0000 0.4766
vn 0.9078 0.0000 0.4193
vn 0.9328 0.0000 0.3603
vn 0.9540 -0.0000 0.2998
vn 0.9712 -0.0000 0.2381
vn 0.9845 0.0000 0.1754
vn 0.9937 0.0000 0.1120
vn 0.9968 0.0000 0.0802
vn 1.0000 0.0000 -0.0044
vn 0.9984 0.0000 -0.0568
vn 0.9869 -0.0000 -0.1611
vn 0.9646 -0.0000 -0.2637
vn 0.9317 0.0000 -0.3633
vn 0.8885 0.0000 -0.4589
vn 0.8355 0.0000 -0.5495
vn 0.7733 0.0000 -0.6340
vn 0.7026 0.0000 -0.7116
vn 0.6242 0.0000 -0.7813
vn 0.5389 0.0000 -0.8424
vn 0.4476 0.0000 -0.8942
vn 0.4001 0.0000 -0.9165
vn 0.3121 0.0000 -0.9501
vn 0.2722 0.0000 -0.9622
vn 0.1911 0.0000 -0.9816
vn 0.1086 0.0000 -0.9941
vn 0.0254 0.0000 -0.9997
vn -0.0580 0.0000 -0.9983
vn -0.1409 0.0000 -0.9900
vn -0.2229 0.0000 -0.9748
vn -0.3034 0.0000 -0.9529
vn -0.3817 0.0000 -0.9243
vn -0.4574 0.0000 -0.8893
vn -0.5299 0.0000 -0.8480
vn -0.5648 0.0000 -0.8252
vn 0.4987 0.0000 -0.8668
vn -0.0000 1.0000 0.0000
usemtl _1
s 1
f 1/1/1 2/2/1 3/3/1 4/4/1 5/5/1 6/6/1 7/7/1 8/8/1 9/9/1 10/10/1 11/11/1 12/12/1 13/13/1 14/14/1 15/15/1 16/16/1 17/17/1 18/18/1 19/19/1 20/20/1 21/21/1 22/22/1 23/23/1 24/24/1 25/25/1 26/26/1 27/27/1 28/28/1 29/29/1 30/30/1 31/31/1 32/32/1 33/33/1 34/34/1 35/35/1 36/36/1 37/37/1 38/38/1 39/39/1 40/40/1 41/41/1 42/42/1 43/43/1 44/44/1 45/45/1 46/46/1 47/47/1 48/48/1 49/49/1 50/50/1 51/51/1 52/52/1 53/53/1 54/54/1 55/55/1 56/56/1 57/57/1 58/58/1 59/59/1 60/60/1 61/61/1 62/62/1 63/63/1 64/64/1 65/65/1 66/66/1 67/67/1 68/68/1 69/69/1 70/70/1 71/71/1 72/72/1 73/73/1 74/74/1
usemtl Sumele_Shoe
f 2/75/2 1/76/3 75/77/3 76/78/2
f 1/79/3 74/80/4 77/81/4 75/82/3
f 74/83/4 73/84/5 78/85/5 77/86/4
f 73/87/5 72/88/6 79/89/6 78/90/5
f 72/91/6 71/92/7 80/93/7 79/94/6
f 71/95/7 70/96/8 81/97/8 80/98/7
f 70/99/8 69/100/9 82/101/9 81/102/8
f 69/103/9 68/104/10 83/105/10 82/106/9
f 68/107/10 67/108/11 84/109/11 83/110/10
f 67/111/11 66/112/12 85/113/12 84/114/11
f 66/115/12 65/116/13 86/117/13 85/118/12
f 65/119/14 64/120/15 87/121/15 86/122/14
f 64/123/15 63/124/16 88/125/16 87/126/15
f 63/127/16 62/128/17 89/129/17 88/130/16
f 62/131/17 61/132/18 90/133/18 89/134/17
f 61/135/18 60/136/19 91/137/19 90/138/18
f 60/139/19 59/140/20 92/141/20 91/142/19
f 59/143/20 58/144/21 93/145/21 92/146/20
f 58/147/21 57/148/22 94/149/22 93/150/21
f 57/151/22 56/152/23 95/153/23 94/154/22
f 56/155/23 55/156/24 96/157/24 95/158/23
f 55/159/24 54/160/25 97/161/25 96/162/24
f 54/163/25 53/164/26 98/165/26 97/166/25
f 53/167/27 52/168/27 99/169/27 98/170/27
f 52/171/28 51/172/29 100/173/29 99/174/28
f 51/175/29 50/176/30 101/177/30 100/178/29
f 50/179/30 49/180/31 102/181/31 101/182/30
f 49/183/31 48/184/32 103/185/32 102/186/31
f 48/187/32 47/188/33 104/189/33 103/190/32
f 47/191/33 46/192/34 105/193/34 104/194/33
f 46/195/34 45/196/35 106/197/35 105/198/34
f 45/199/35 44/200/36 107/201/36 106/202/35
f 44/203/36 43/204/37 108/205/37 107/206/36
f 43/207/37 42/208/38 109/209/38 108/210/37
f 42/211/38 41/212/39 110/213/39 109/214/38
f 41/215/39 40/216/40 111/217/40 110/218/39
f 40/219/41 39/220/41 112/221/41 111/222/41
f 39/223/42 38/224/43 113/225/43 112/226/42
f 38/227/43 37/228/44 114/229/44 113/230/43
f 37/231/44 36/232/45 115/233/45 114/234/44
f 36/235/45 35/236/46 116/237/46 115/238/45
f 35/239/46 34/240/47 117/241/47 116/242/46
f 34/243/47 33/244/48 118/245/48 117/246/47
f 33/247/48 32/248/49 119/249/49 118/250/48
f 32/251/49 31/252/50 120/253/50 119/254/49
f 31/255/50 30/256/51 121/257/51 120/258/50
f 30/259/51 29/260/52 122/261/52 121/262/51
f 29/263/52 28/264/53 123/265/53 122/266/52
f 28/267/53 27/268/54 124/269/54 123/270/53
f 27/271/55 26/272/56 125/273/56 124/274/55
f 26/275/56 25/276/57 126/277/57 125/278/56
f 25/279/57 24/280/58 127/281/58 126/282/57
f 24/283/58 23/284/59 128/285/59 127/286/58
f 23/287/59 22/288/60 129/289/60 128/290/59
f 22/291/60 21/292/61 130/293/61 129/294/60
f 21/295/61 20/296/62 131/297/62 130/298/61
f 20/299/62 19/300/63 132/301/63 131/302/62
f 19/303/63 18/304/64 133/305/64 132/306/63
f 18/307/64 17/308/65 134/309/65 133/310/64
f 17/311/65 16/312/66 135/313/66 134/314/65
f 16/315/66 15/316/67 136/317/67 135/318/66
f 15/319/68 14/320/69 137/321/69 136/322/68
f 14/323/69 13/324/70 138/325/70 137/326/69
f 13/327/70 12/328/71 139/329/71 138/330/70
f 12/331/71 11/332/72 140/333/72 139/334/71
f 11/335/72 10/336/73 141/337/73 140/338/72
f 10/339/73 9/340/74 142/341/74 141/342/73
f 9/343/74 8/344/75 143/345/75 142/346/74
f 8/347/75 7/348/76 144/349/76 143/350/75
f 7/351/76 6/352/77 145/353/77 144/354/76
f 6/355/77 5/356/78 146/357/78 145/358/77
f 5/359/78 4/360/79 147/361/79 146/362/78
f 4/363/79 3/364/80 148/365/80 147/366/79
f 3/367/81 2/368/2 76/369/2 148/370/81
usemtl _
f 76/371/82 75/372/82 77/373/82 78/374/82 79/375/82 80/376/82 81/377/82 82/378/82 83/379/82 84/380/82 85/381/82 86/382/82 87/383/82 88/384/82 89/385/82 90/386/82 91/387/82 92/388/82 93/389/82 94/390/82 95/391/82 96/392/82 97/393/82 98/394/82 99/395/82 100/396/82 101/397/82 102/398/82 103/399/82 104/400/82 105/401/82 106/402/82 107/403/82 108/404/82 109/405/82 110/406/82 111/407/82 112/408/82 113/409/82 114/410/82 115/411/82 116/412/82 117/413/82 118/414/82 119/415/82 120/416/82 121/417/82 122/418/82 123/419/82 124/420/82 125/421/82 126/422/82 127/423/82 128/424/82 129/425/82 130/426/82 131/427/82 132/428/82 133/429/82 134/430/82 135/431/82 136/432/82 137/433/82 138/434/82 139/435/82 140/436/82 141/437/82 142/438/82 143/439/82 144/440/82 145/441/82 146/442/82 147/443/82 148/444/82
