# Blender v2.92.0 OBJ File: 'caja.blend'
# www.blender.org
mtllib cajatts.mtl
o Cube.001
v -0.205197 1.048783 0.717947
v -0.205197 1.065340 0.706789
v -0.208436 1.048783 0.706789
v -0.205197 1.057051 0.716456
v -0.206814 1.048783 0.716456
v -0.206746 1.056701 0.715008
v -0.206814 1.063128 0.706789
v -0.205197 1.063128 0.712360
v -0.206746 1.060980 0.712125
v -0.208003 1.048783 0.712360
v -0.208003 1.057051 0.706789
v -0.207583 1.056701 0.712125
v -0.205197 -1.065340 0.706789
v -0.205197 -1.048783 0.717947
v -0.208436 -1.048783 0.706789
v -0.205197 -1.063128 0.712360
v -0.206814 -1.063128 0.706789
v -0.206746 -1.060980 0.712125
v -0.206814 -1.048783 0.716456
v -0.205197 -1.057051 0.716456
v -0.206746 -1.056701 0.715008
v -0.208003 -1.057051 0.706789
v -0.208003 -1.048783 0.712360
v -0.207583 -1.056701 0.712125
v -0.208436 1.048783 -0.706789
v -0.205197 1.065340 -0.706789
v -0.205197 1.048783 -0.717947
v -0.208003 1.057051 -0.706789
v -0.208003 1.048783 -0.712360
v -0.207583 1.056701 -0.712125
v -0.205197 1.063128 -0.712360
v -0.206814 1.063128 -0.706789
v -0.206746 1.060980 -0.712125
v -0.206814 1.048783 -0.716456
v -0.205197 1.057051 -0.716456
v -0.206746 1.056701 -0.715008
v -0.208436 -1.048783 -0.706789
v -0.205197 -1.048783 -0.717947
v -0.205197 -1.065340 -0.706789
v -0.208003 -1.048783 -0.712360
v -0.208003 -1.057051 -0.706789
v -0.207583 -1.056701 -0.712125
v -0.205197 -1.057051 -0.716456
v -0.206814 -1.048783 -0.716456
v -0.206746 -1.056701 -0.715008
v -0.206814 -1.063128 -0.706789
v -0.205197 -1.063128 -0.712360
v -0.206746 -1.060980 -0.712125
v 0.205197 1.048783 0.717947
v 0.208436 1.048783 0.706789
v 0.205197 1.065340 0.706789
v 0.206814 1.048783 0.716456
v 0.205197 1.057051 0.716456
v 0.206746 1.056701 0.715008
v 0.208003 1.057051 0.706789
v 0.208003 1.048783 0.712360
v 0.207583 1.056701 0.712125
v 0.205197 1.063128 0.712360
v 0.206814 1.063128 0.706789
v 0.206746 1.060980 0.712125
v 0.208436 -1.048783 0.706789
v 0.205197 -1.048783 0.717947
v 0.205197 -1.065340 0.706789
v 0.208003 -1.048783 0.712360
v 0.208003 -1.057051 0.706789
v 0.207583 -1.056701 0.712125
v 0.205197 -1.057051 0.716456
v 0.206814 -1.048783 0.716456
v 0.206746 -1.056701 0.715008
v 0.206814 -1.063128 0.706789
v 0.205197 -1.063128 0.712360
v 0.206746 -1.060980 0.712125
v 0.208436 1.048783 -0.706789
v 0.205197 1.048783 -0.717947
v 0.205197 1.065340 -0.706789
v 0.208003 1.048783 -0.712360
v 0.208003 1.057051 -0.706789
v 0.207583 1.056701 -0.712125
v 0.205197 1.057051 -0.716456
v 0.206814 1.048783 -0.716456
v 0.206746 1.056701 -0.715008
v 0.206814 1.063128 -0.706789
v 0.205197 1.063128 -0.712360
v 0.206746 1.060980 -0.712125
v 0.205197 -1.065340 -0.706789
v 0.205197 -1.048783 -0.717947
v 0.208436 -1.048783 -0.706789
v 0.205197 -1.063128 -0.712360
v 0.206814 -1.063128 -0.706789
v 0.206746 -1.060980 -0.712125
v 0.206814 -1.048783 -0.716456
v 0.205197 -1.057051 -0.716456
v 0.206746 -1.056701 -0.715008
v 0.208003 -1.057051 -0.706789
v 0.208003 -1.048783 -0.712360
v 0.207583 -1.056701 -0.712125
vt 0.002239 0.811893
vt 0.136869 0.186933
vt 0.136869 0.811893
vt 0.854979 0.188534
vt 0.145249 0.810539
vt 0.145249 0.188534
vt 0.853079 0.002425
vt 0.145171 0.182818
vt 0.145171 0.002425
vt 0.861917 0.810078
vt 0.997925 0.186919
vt 0.997925 0.810078
vt 0.884028 0.872215
vt 0.958666 0.946853
vt 0.958666 0.872215
vt 0.857274 0.997589
vt 0.854489 0.998293
vt 0.854489 0.997589
vt 0.997925 0.814340
vt 0.998439 0.814997
vt 0.998439 0.813702
vt 0.998461 0.810078
vt 0.997925 0.812535
vt 0.998999 0.810078
vt 0.998439 0.812431
vt 0.884028 0.871921
vt 0.883734 0.872215
vt 0.884028 0.871626
vt 0.883747 0.871934
vt 0.998999 0.812431
vt 0.998999 0.812431
vt 0.002239 0.814356
vt 0.001708 0.811893
vt 0.002239 0.816826
vt 0.001731 0.814252
vt 0.147960 0.998293
vt 0.145175 0.997589
vt 0.147960 0.997589
vt 0.958666 0.871626
vt 0.958947 0.871781
vt 0.958666 0.871705
vt 0.958960 0.872215
vt 0.958666 0.871921
vt 0.001318 0.811892
vt 0.001176 0.814252
vt 0.001456 0.814252
vt 0.001731 0.816826
vt 0.001176 0.814252
vt 0.883734 0.946853
vt 0.884028 0.947147
vt 0.884028 0.946853
vt 0.998856 0.186919
vt 0.998999 0.184567
vt 0.998716 0.184567
vt 0.997925 0.184463
vt 0.998461 0.186919
vt 0.858666 0.002425
vt 0.857195 0.001744
vt 0.857920 0.002425
vt 0.853078 0.001714
vt 0.855869 0.002425
vt 0.853079 0.001001
vt 0.855751 0.001744
vt 0.998439 0.182000
vt 0.958666 0.947147
vt 0.958960 0.946853
vt 0.145171 0.001001
vt 0.142499 0.001376
vt 0.145171 0.001191
vt 0.142381 0.002425
vt 0.145171 0.001714
vt 0.002239 0.182659
vt 0.001731 0.182000
vt 0.001731 0.183300
vt 0.001708 0.186933
vt 0.002239 0.184470
vt 0.002239 0.186933
vt 0.001176 0.186933
vt 0.001731 0.184574
vt 0.139584 0.001744
vt 0.139584 0.001744
vt 0.854489 0.818292
vt 0.857274 0.818996
vt 0.854489 0.818996
vt 0.854979 0.815449
vt 0.857658 0.814156
vt 0.854978 0.814793
vt 0.857776 0.810539
vt 0.854979 0.812991
vt 0.854978 0.810539
vt 0.860843 0.812431
vt 0.857658 0.812887
vt 0.861917 0.812535
vt 0.861381 0.810079
vt 0.861917 0.814997
vt 0.861404 0.812431
vt 0.857658 0.815449
vt 0.860581 0.812887
vt 0.145249 0.812991
vt 0.142451 0.810539
vt 0.145249 0.815449
vt 0.142570 0.812887
vt 0.145175 0.818996
vt 0.147960 0.818292
vt 0.147960 0.818996
vt 0.136869 0.816167
vt 0.137377 0.816826
vt 0.137377 0.815526
vt 0.137400 0.811893
vt 0.136869 0.814356
vt 0.139647 0.810539
vt 0.137377 0.814252
vt 0.142570 0.815449
vt 0.139647 0.812887
vt 0.854979 0.186082
vt 0.857776 0.188534
vt 0.853079 0.184242
vt 0.857658 0.186186
vt 0.855869 0.182818
vt 0.853079 0.183529
vt 0.853079 0.182818
vt 0.858666 0.183499
vt 0.855751 0.183499
vt 0.861381 0.186919
vt 0.861917 0.184463
vt 0.861917 0.186919
vt 0.860581 0.188534
vt 0.861404 0.184567
vt 0.857658 0.183624
vt 0.860581 0.186186
vt 0.136869 0.184470
vt 0.137400 0.186933
vt 0.136869 0.182000
vt 0.137377 0.184574
vt 0.145171 0.183529
vt 0.142381 0.182818
vt 0.145249 0.183624
vt 0.142499 0.183499
vt 0.142452 0.188534
vt 0.145249 0.186082
vt 0.137932 0.184574
vt 0.142570 0.186186
vt 0.137377 0.182000
vt 0.137932 0.184574
vt 0.854979 0.815449
vt 0.858666 0.182818
vt 0.858666 0.002425
vt 0.857156 0.998263
vt 0.997925 0.814997
vt 0.883747 0.871626
vt 0.145293 0.998263
vt 0.958948 0.871626
vt 0.958948 0.871934
vt 0.001176 0.811893
vt 0.883747 0.947134
vt 0.998999 0.186919
vt 0.998439 0.184567
vt 0.858666 0.001744
vt 0.855751 0.001001
vt 0.958948 0.947134
vt 0.142499 0.001001
vt 0.142499 0.001744
vt 0.002239 0.182000
vt 0.001176 0.184574
vt 0.857156 0.818322
vt 0.860843 0.810078
vt 0.861404 0.814997
vt 0.145293 0.818322
vt 0.136869 0.816826
vt 0.139647 0.812887
vt 0.855751 0.184242
vt 0.860581 0.186186
vt 0.142570 0.183624
vt 0.137932 0.186933
vt 0.136869 0.816826
vt 0.958666 0.871626
vt 0.145171 0.001001
vt 0.998999 0.186919
vt 0.002239 0.182000
vt 0.997925 0.814997
vt 0.001176 0.811893
vn -0.4291 -0.8881 0.1646
vn 0.4291 -0.8881 -0.1646
vn 0.4291 -0.8881 0.1646
vn 0.9989 0.0261 -0.0387
vn 0.9989 -0.0261 0.0387
vn 0.9989 -0.0261 -0.0387
vn -0.3561 0.0820 -0.9308
vn 0.3561 -0.0820 -0.9308
vn -0.3561 -0.0820 -0.9308
vn 0.4291 0.8881 0.1646
vn -0.4291 0.8881 -0.1646
vn -0.4291 0.8881 0.1646
vn -0.9989 0.0261 0.0387
vn -0.9989 -0.0261 -0.0387
vn -0.9989 -0.0261 0.0387
vn -0.3544 0.3491 0.8675
vn -0.8432 0.0510 0.5351
vn -0.3561 0.0820 0.9308
vn -0.8626 0.3682 0.3468
vn -0.8341 0.2123 0.5091
vn -0.9041 0.4179 0.0888
vn -0.3978 0.7274 0.5591
vn -0.9914 0.1240 0.0425
vn -0.9832 0.0282 0.1800
vn -0.9760 0.1215 0.1805
vn -0.3978 -0.7274 0.5591
vn -0.9041 -0.4179 0.0888
vn -0.3544 -0.3491 0.8675
vn -0.8626 -0.3682 0.3468
vn -0.8432 -0.0510 0.5351
vn -0.3561 -0.0820 0.9308
vn -0.9832 -0.0282 0.1800
vn -0.8341 -0.2123 0.5091
vn -0.9914 -0.1240 0.0425
vn -0.9760 -0.1215 0.1805
vn -0.9914 0.1240 -0.0425
vn -0.9832 0.0282 -0.1800
vn -0.9989 0.0261 -0.0387
vn -0.8626 0.3682 -0.3468
vn -0.9760 0.1215 -0.1805
vn -0.3978 0.7274 -0.5591
vn -0.9041 0.4179 -0.0888
vn -0.3544 0.3491 -0.8675
vn -0.8432 0.0510 -0.5351
vn -0.8341 0.2123 -0.5091
vn -0.9832 -0.0282 -0.1800
vn -0.9914 -0.1240 -0.0425
vn -0.8432 -0.0510 -0.5351
vn -0.9760 -0.1215 -0.1805
vn -0.3544 -0.3491 -0.8675
vn -0.8626 -0.3682 -0.3468
vn -0.8341 -0.2123 -0.5091
vn -0.9041 -0.4179 -0.0888
vn -0.3978 -0.7274 -0.5591
vn -0.4291 -0.8881 -0.1646
vn 0.8432 0.0510 0.5351
vn 0.3544 0.3491 0.8675
vn 0.3561 0.0820 0.9308
vn 0.9832 0.0282 0.1800
vn 0.8341 0.2123 0.5091
vn 0.9914 0.1240 0.0425
vn 0.9989 0.0261 0.0387
vn 0.8626 0.3682 0.3468
vn 0.9760 0.1215 0.1805
vn 0.3978 0.7274 0.5591
vn 0.9041 0.4179 0.0888
vn 0.9832 -0.0282 0.1800
vn 0.9914 -0.1240 0.0425
vn 0.8432 -0.0510 0.5351
vn 0.9760 -0.1215 0.1805
vn 0.3544 -0.3491 0.8675
vn 0.3561 -0.0820 0.9308
vn 0.8626 -0.3682 0.3468
vn 0.8341 -0.2123 0.5091
vn 0.9041 -0.4179 0.0888
vn 0.3978 -0.7274 0.5591
vn 0.9832 0.0282 -0.1800
vn 0.9914 0.1240 -0.0425
vn 0.8432 0.0510 -0.5351
vn 0.9760 0.1215 -0.1805
vn 0.3544 0.3491 -0.8675
vn 0.3561 0.0820 -0.9308
vn 0.8626 0.3682 -0.3468
vn 0.8341 0.2123 -0.5091
vn 0.9041 0.4179 -0.0888
vn 0.3978 0.7274 -0.5591
vn 0.4291 0.8881 -0.1646
vn 0.3978 -0.7274 -0.5591
vn 0.9041 -0.4179 -0.0888
vn 0.3544 -0.3491 -0.8675
vn 0.8626 -0.3682 -0.3468
vn 0.8432 -0.0510 -0.5351
vn 0.9832 -0.0282 -0.1800
vn 0.8341 -0.2123 -0.5091
vn 0.9914 -0.1240 -0.0425
vn 0.9760 -0.1215 -0.1805
usemtl Material
s 1
f 13/1/1 85/2/2 63/3/3
f 73/4/4 61/5/5 87/6/6
f 27/7/7 86/8/8 38/9/9
f 51/10/10 26/11/11 2/12/12
f 3/13/13 37/14/14 15/15/15
f 4/16/16 5/17/17 1/18/18
f 4/19/16 9/20/19 6/21/20
f 7/22/21 8/23/22 2/12/12
f 11/24/23 9/25/19 7/22/21
f 10/26/24 11/27/23 3/13/13
f 5/28/17 12/29/25 10/26/24
f 6/21/20 9/30/19 12/31/25
f 16/32/26 17/33/27 13/1/1
f 20/34/28 18/35/29 16/32/26
f 19/36/30 20/37/28 14/38/31
f 23/39/32 21/40/33 19/41/30
f 22/42/34 23/43/32 15/15/15
f 22/44/34 18/45/29 24/46/35
f 18/35/29 21/47/33 24/48/35
f 28/49/36 29/50/37 25/51/38
f 28/52/36 33/53/39 30/54/40
f 31/55/41 32/56/42 26/11/11
f 35/57/43 33/58/39 31/59/41
f 34/60/44 35/61/43 27/7/7
f 29/62/37 36/63/45 34/60/44
f 30/54/40 33/53/39 36/64/45
f 40/65/46 41/66/47 37/14/14
f 44/67/48 42/68/49 40/69/46
f 43/70/50 44/71/48 38/9/9
f 43/72/50 48/73/51 45/74/52
f 46/75/53 47/76/54 39/77/55
f 41/78/47 48/79/51 46/75/53
f 42/68/49 45/80/52 48/81/51
f 52/82/56 53/83/57 49/84/58
f 56/85/59 54/86/60 52/87/56
f 55/88/61 56/89/59 50/90/62
f 55/88/61 60/91/63 57/92/64
f 58/93/65 59/94/66 51/10/10
f 53/95/57 60/96/63 58/93/65
f 54/86/60 57/97/64 60/98/63
f 64/99/67 65/100/68 61/5/5
f 68/101/69 66/102/70 64/99/67
f 67/103/71 68/104/69 62/105/72
f 67/106/71 72/107/73 69/108/74
f 70/109/75 71/110/76 63/3/3
f 65/111/68 72/112/73 70/109/75
f 66/102/70 69/113/74 72/114/73
f 76/115/77 77/116/78 73/4/4
f 80/117/79 78/118/80 76/115/77
f 79/119/81 80/120/79 74/121/82
f 79/119/81 84/122/83 81/123/84
f 82/124/85 83/125/86 75/126/87
f 77/127/78 84/128/83 82/124/85
f 78/118/80 81/129/84 84/130/83
f 88/131/88 89/132/89 85/2/2
f 92/133/90 90/134/91 88/131/88
f 91/135/92 92/136/90 86/8/8
f 95/137/93 93/138/94 91/135/92
f 94/139/95 95/140/93 87/6/6
f 94/139/95 90/141/91 96/142/96
f 90/134/91 93/143/94 96/144/96
f 85/2/2 70/109/75 63/3/3
f 89/132/89 65/100/68 70/109/75
f 94/139/95 61/5/5 65/100/68
f 63/3/3 16/32/26 13/1/1
f 71/110/76 20/34/28 16/32/26
f 67/103/71 14/38/31 20/37/28
f 15/15/15 10/26/24 3/13/13
f 23/43/32 5/28/17 10/26/24
f 19/36/30 1/18/18 5/17/17
f 74/121/82 91/135/92 86/8/8
f 80/120/79 95/140/93 91/135/92
f 76/115/77 87/6/6 95/140/93
f 38/9/9 34/60/44 27/7/7
f 44/71/48 29/62/37 34/60/44
f 40/65/46 25/51/38 29/50/37
f 62/105/72 52/82/56 49/84/58
f 68/101/69 56/89/59 52/145/56
f 64/99/67 50/90/62 56/89/59
f 75/126/87 31/55/41 26/11/11
f 83/146/86 35/61/43 31/147/41
f 79/119/81 27/7/7 35/61/43
f 26/11/11 7/22/21 2/12/12
f 32/56/42 11/24/23 7/22/21
f 28/49/36 3/13/13 11/27/23
f 39/77/55 88/131/88 85/2/2
f 47/76/54 92/133/90 88/131/88
f 43/70/50 86/8/8 92/136/90
f 51/10/10 82/124/85 75/126/87
f 59/94/66 77/116/78 82/124/85
f 55/88/61 73/4/4 77/116/78
f 2/12/12 58/93/65 51/10/10
f 8/23/22 53/95/57 58/93/65
f 4/16/16 49/84/58 53/83/57
f 13/1/1 46/75/53 39/77/55
f 17/33/27 41/78/47 46/75/53
f 22/42/34 37/14/14 41/66/47
f 49/84/58 14/38/31 62/105/72
f 13/1/1 39/77/55 85/2/2
f 73/4/4 50/90/62 61/5/5
f 27/7/7 74/121/82 86/8/8
f 51/10/10 75/126/87 26/11/11
f 3/13/13 25/51/38 37/14/14
f 4/16/16 6/148/20 5/17/17
f 4/19/16 8/149/22 9/20/19
f 7/22/21 9/25/19 8/23/22
f 11/24/23 12/31/25 9/25/19
f 10/26/24 12/29/25 11/27/23
f 5/28/17 6/150/20 12/29/25
f 16/32/26 18/35/29 17/33/27
f 20/34/28 21/47/33 18/35/29
f 19/36/30 21/151/33 20/37/28
f 23/39/32 24/152/35 21/40/33
f 22/42/34 24/153/35 23/43/32
f 22/44/34 17/154/27 18/45/29
f 28/49/36 30/155/40 29/50/37
f 28/52/36 32/156/42 33/53/39
f 31/55/41 33/157/39 32/56/42
f 35/57/43 36/158/45 33/58/39
f 34/60/44 36/63/45 35/61/43
f 29/62/37 30/159/40 36/63/45
f 40/65/46 42/160/49 41/66/47
f 44/67/48 45/161/52 42/68/49
f 43/70/50 45/162/52 44/71/48
f 43/72/50 47/163/54 48/73/51
f 46/75/53 48/79/51 47/76/54
f 41/78/47 42/164/49 48/79/51
f 52/82/56 54/165/60 53/83/57
f 56/85/59 57/97/64 54/86/60
f 55/88/61 57/92/64 56/89/59
f 55/88/61 59/166/66 60/91/63
f 58/93/65 60/96/63 59/94/66
f 53/95/57 54/167/60 60/96/63
f 64/99/67 66/102/70 65/100/68
f 68/101/69 69/113/74 66/102/70
f 67/103/71 69/168/74 68/104/69
f 67/106/71 71/169/76 72/107/73
f 70/109/75 72/112/73 71/110/76
f 65/111/68 66/170/70 72/112/73
f 76/115/77 78/118/80 77/116/78
f 80/117/79 81/171/84 78/118/80
f 79/119/81 81/123/84 80/120/79
f 79/119/81 83/146/86 84/122/83
f 82/124/85 84/128/83 83/125/86
f 77/127/78 78/172/80 84/128/83
f 88/131/88 90/134/91 89/132/89
f 92/133/90 93/143/94 90/134/91
f 91/135/92 93/138/94 92/136/90
f 95/137/93 96/173/96 93/138/94
f 94/139/95 96/142/96 95/140/93
f 94/139/95 89/174/89 90/141/91
f 85/2/2 89/132/89 70/109/75
f 89/132/89 94/139/95 65/100/68
f 94/139/95 87/6/6 61/5/5
f 63/3/3 71/110/76 16/32/26
f 71/110/76 67/175/71 20/34/28
f 67/103/71 62/105/72 14/38/31
f 15/15/15 23/43/32 10/26/24
f 23/43/32 19/176/30 5/28/17
f 19/36/30 14/38/31 1/18/18
f 74/121/82 80/120/79 91/135/92
f 80/120/79 76/115/77 95/140/93
f 76/115/77 73/4/4 87/6/6
f 38/9/9 44/71/48 34/60/44
f 44/71/48 40/177/46 29/62/37
f 40/65/46 37/14/14 25/51/38
f 62/105/72 68/104/69 52/82/56
f 68/101/69 64/99/67 56/89/59
f 64/99/67 61/5/5 50/90/62
f 75/126/87 83/125/86 31/55/41
f 83/146/86 79/119/81 35/61/43
f 79/119/81 74/121/82 27/7/7
f 26/11/11 32/56/42 7/22/21
f 32/56/42 28/178/36 11/24/23
f 28/49/36 25/51/38 3/13/13
f 39/77/55 47/76/54 88/131/88
f 47/76/54 43/179/50 92/133/90
f 43/70/50 38/9/9 86/8/8
f 51/10/10 59/94/66 82/124/85
f 59/94/66 55/88/61 77/116/78
f 55/88/61 50/90/62 73/4/4
f 2/12/12 8/23/22 58/93/65
f 8/23/22 4/180/16 53/95/57
f 4/16/16 1/18/18 49/84/58
f 13/1/1 17/33/27 46/75/53
f 17/33/27 22/181/34 41/78/47
f 22/42/34 15/15/15 37/14/14
f 49/84/58 1/18/18 14/38/31
