# Blender v2.79 (sub 0) OBJ File: ''
# www.blender.org
mtllib Game box1.mtl
o Cube
v 0.216836 2.152500 1.612423
v 0.216836 2.122049 -1.629167
v -0.216836 2.122049 -1.629167
v -0.216836 2.152500 1.612424
v 0.216836 -0.091471 1.629167
v 0.216836 -0.121923 -1.612424
v -0.216836 -0.121923 -1.612423
v -0.216836 -0.091471 1.629167
vt 0.891571 0.077464
vt 0.000191 0.077464
vt 0.000191 0.000191
vt 0.891571 0.000191
vt 0.000191 0.077463
vt 0.000191 0.000191
vt 0.891571 0.000191
vt 0.891572 0.077463
vt -0.000315 1.000341
vt 0.000100 0.541456
vt 0.891561 0.540657
vt 0.891145 0.999541
vt 0.895432 0.999977
vt 0.895276 0.541408
vt 0.999203 0.541389
vt 0.999360 0.999958
vt 0.000403 0.538020
vt -0.000730 0.081047
vt 0.890172 0.081110
vt 0.891305 0.538083
vt 0.999203 0.541389
vt 0.999360 0.999958
vt 0.895432 0.999977
vt 0.895276 0.541408
vn -0.0000 1.0000 -0.0094
vn 0.0000 -1.0000 0.0094
vn 1.0000 -0.0000 -0.0000
vn -0.0000 -0.0075 -1.0000
vn -1.0000 0.0000 0.0000
vn 0.0000 0.0075 1.0000
usemtl Material
s off
f 1/1/1 2/2/1 3/3/1 4/4/1
f 5/5/2 8/6/2 7/7/2 6/8/2
f 1/9/3 5/10/3 6/11/3 2/12/3
f 2/13/4 6/14/4 7/15/4 3/16/4
f 3/17/5 7/18/5 8/19/5 4/20/5
f 5/21/6 1/22/6 4/23/6 8/24/6
